<svg version="1.1" xmlns="http://www.w3.org/2000/svg" style="display: block;" viewBox="0 0 2048 1924" width="1056" height="992" preserveAspectRatio="none">
  <defs>
    <!-- We use a mask to cut out the inner "holes" so the background shows through -->
    <mask id="cutout-holes">
      <rect width="2048" height="1924" fill="white" />
      
      <!-- Inner paths converted to black to create transparent cutouts -->
      <path fill="black" d="M 1016.61 758.534 C 1019.48 760.639 1031.68 774.671 1034.86 778.118 C 1044.7 788.933 1055.06 799.259 1065.91 809.06 C 1127.61 863.937 1175.54 895.753 1248.38 933.169 C 1247.63 998.015 1248.17 1063.76 1248.2 1128.68 L 1154.78 1128.93 C 1154.85 1092.07 1157.73 1039.75 1152.02 1004.87 C 1134.04 895.039 1049.25 904.433 1017.12 829.188 C 1014.97 830.479 1008.43 845.657 1006.03 849.292 C 985.123 880.911 949.767 896.038 923.402 922.282 C 882.045 963.451 879.925 1009.32 879.919 1063.58 L 879.975 1128.81 L 786.073 1128.89 L 785.953 934.468 C 869.85 890.168 955.931 832.609 1016.61 758.534 z"/>
<!--      <path fill="black" d="M 1236.92 1292.85 C 1272.84 1286.36 1307.23 1310.21 1313.73 1346.13 C 1320.23 1382.05 1296.38 1416.44 1260.45 1422.94 C 1224.53 1429.44 1190.14 1405.59 1183.64 1369.67 C 1177.14 1333.74 1200.99 1299.35 1236.92 1292.85 z"/>-->
<!--      <path fill="black" d="M 527.353 1315.69 C 530.574 1319.09 550.095 1367.83 553.62 1375.92 L 529.5 1375.9 L 501.921 1375.95 L 527.353 1315.69 z"/>-->
<!--      <path fill="black" d="M 535.01 1512.55 C 546.744 1509.46 558.771 1516.42 561.939 1528.14 C 565.106 1539.85 558.226 1551.92 546.535 1555.17 C 534.731 1558.45 522.516 1551.49 519.318 1539.66 C 516.121 1527.84 523.163 1515.67 535.01 1512.55 z"/>-->
<!--      <path fill="black" d="M 1231.76 1512.53 C 1239.44 1510.46 1247.64 1512.69 1253.21 1518.36 C 1258.78 1524.04 1260.86 1532.28 1258.65 1539.92 C 1256.45 1547.56 1250.29 1553.42 1242.55 1555.24 C 1230.84 1558.01 1219.08 1550.86 1216.13 1539.2 C 1213.18 1527.53 1220.14 1515.66 1231.76 1512.53 z"/>-->
<!--      <path fill="black" d="M 1440.31 1512.43 C 1452.04 1509.38 1464.02 1516.39 1467.11 1528.11 C 1470.2 1539.83 1463.23 1551.84 1451.52 1554.97 C 1439.75 1558.11 1427.67 1551.1 1424.57 1539.32 C 1421.47 1527.55 1428.52 1515.49 1440.31 1512.43 z"/>-->
<!--      <path fill="black" d="M 1500.34 1512.29 C 1514.67 1511.8 1540.13 1511.95 1526.6 1534.04 C 1518.82 1538.38 1509.4 1537.12 1500.26 1537.01 L 1500.34 1512.29 z"/>-->
<!--      <path fill="black" d="M 1075.9 1534.73 C 1080.8 1537.88 1090.02 1545.93 1090.49 1551.95 C 1088.82 1554.87 1086.47 1555.31 1083.26 1556.63 C 1064.57 1557.67 1059.8 1546.15 1075.9 1534.73 z"/>-->
<!--      <path fill="black" d="M 1076.71 1510.63 C 1081.33 1510.57 1082.63 1510.36 1086.51 1512.54 C 1090.89 1518.63 1087.27 1521.11 1082.35 1525.03 C 1072.84 1527.94 1069.85 1518.53 1076.71 1510.63 z"/>-->
<!--      <path fill="black" d="M 649.148 1512.31 C 662.925 1512.04 689.76 1512.85 675.234 1534.37 C 667.452 1538.61 657.868 1537.68 648.938 1537.64 C 648.941 1529.2 649.01 1520.75 649.148 1512.31 z"/>-->
<!--      <path fill="black" d="M 801.668 1514.75 C 804.764 1517.99 812.133 1536.47 814.306 1541.6 L 803.815 1541.81 L 789.734 1541.79 L 801.668 1514.75 z"/>-->
    </mask>
  </defs>

  <g mask="url(#cutout-holes)">
    <!-- Colored Shapes -->
    <path transform="translate(0,0)" fill="rgb(27,80,92)" d="M 1016.31 681.47 C 1019.73 684.318 1036.97 714.057 1042.1 720.76 C 1065.28 750.901 1091.26 778.778 1119.69 804.019 C 1198.96 873.681 1298.9 926.544 1395.43 968.335 C 1418.64 978.383 1443.16 986.699 1467.33 994.06 C 1473.48 995.932 1480.06 997.463 1485.71 1000.5 C 1421.97 993.661 1359.54 977.776 1300.29 953.325 L 1300.48 1171.2 C 1231.51 1172.22 1160.2 1171.28 1091.01 1171.34 L 1091.29 1074.24 C 1091.43 1018.82 1095.44 982.359 1044.98 947.497 C 1034.59 940.318 1024.4 927.056 1017.6 916.464 C 1015.35 916.627 1010.63 924.431 1008.95 927.003 C 998.549 942.588 982.79 952.968 969.259 965.936 C 937.278 996.589 942.998 1039.19 943.134 1080.13 L 943.611 1171.27 C 874.244 1172.19 803.075 1171.38 733.518 1171.53 C 732.711 1099.45 733.32 1026.23 733.301 954.073 C 677.029 977.198 609.287 995.908 548.568 1001.08 C 559.889 997.789 571.155 994.316 582.364 990.663 C 628.669 975.434 679.235 952.239 722.595 929.933 C 815.675 882.05 907.563 823.437 975.051 742.149 C 990.787 723.194 1005.16 703.514 1016.31 681.47 z"/>
<!--    <path transform="translate(0,0)" fill="rgb(27,80,92)" d="M 1236.39 1271.44 C 1284.31 1264.57 1328.68 1297.94 1335.39 1345.88 C 1342.09 1393.82 1308.57 1438.09 1260.61 1444.63 C 1212.88 1451.14 1168.87 1417.81 1162.2 1370.1 C 1155.53 1322.39 1188.7 1278.27 1236.39 1271.44 z"/>-->
<!--    <path transform="translate(0,0)" fill="rgb(27,80,92)" d="M 643.925 1274.25 L 679.7 1274.03 C 699.783 1308 720.213 1341.77 740.988 1375.33 C 761.004 1341.44 782.346 1308.47 802.304 1274.28 C 814.109 1274.07 826.173 1274.13 838.002 1274.06 L 837.97 1441.85 L 798.934 1441.94 L 799.024 1408.25 L 798.965 1344.4 C 783.008 1371.31 766.215 1398.31 749.93 1425.07 L 731.489 1425.08 C 714.947 1398.68 698.571 1372.18 682.363 1345.58 C 682.835 1377.72 683.015 1409.87 682.903 1442.01 L 644.067 1442.01 L 643.925 1274.25 z"/>-->
<!--    <path transform="translate(0,0)" fill="rgb(27,80,92)" d="M 507.576 1274.19 L 549.06 1274.02 L 625.445 1442.08 L 581.948 1442.03 C 577.044 1430.45 572.04 1418.92 566.937 1407.44 L 549.5 1407.47 L 488.305 1407.54 L 473.97 1442.05 L 431.097 1442.12 C 439.257 1426.59 449.146 1402.98 456.676 1386.5 L 507.576 1274.19 z"/>-->
<!--    <path transform="translate(0,0)" fill="rgb(27,80,92)" d="M 342.886 1272.36 C 374.907 1268.49 404.54 1277.46 426.1 1301.78 L 399.317 1326.77 L 398.537 1325.94 C 363.394 1289.29 305.125 1306.67 304.159 1359.27 C 303.601 1389.64 328.657 1411.4 357.977 1410.61 C 375.593 1410.14 387.922 1402.38 399.627 1389.64 C 408.808 1397.47 418.032 1405.93 427.042 1414.01 C 393.953 1450.44 335.589 1456.24 296.427 1426.88 C 278.553 1413.5 266.777 1393.52 263.726 1371.4 C 256.264 1318.48 291.403 1279.24 342.886 1272.36 z"/>-->
    <path transform="translate(0,0)" fill="rgb(27,80,92)" d="M 1016.83 593.595 C 1031.61 571.315 1046.24 546.276 1060.5 523.393 C 1075.63 499.118 1091.82 473.909 1106.07 449.329 C 1110.38 462.662 1114.59 476.025 1118.72 489.415 L 1105.42 512.576 L 1017.44 655.451 C 1012.89 649.047 1008.23 641.498 1004.12 634.747 C 974.836 586.629 942.815 539.265 915.191 490.221 C 918.146 478.188 923.442 462.349 927.484 450.575 C 932.621 454.745 1007.23 578.536 1016.83 593.595 z"/>
    <path transform="translate(0,0)" fill="rgb(27,80,92)" d="M 846.61 720.38 C 878.014 715.201 923.27 727.8 952.113 740.323 C 930.422 765.188 902.883 788.185 877.978 809.914 C 882.378 785.582 885.52 772.287 900.96 753.003 C 875.304 772.928 867.985 782.763 852.307 810.731 C 853.617 788.196 858.776 772.256 870.954 753.454 C 847.073 771.984 837.454 788.29 822.737 813.951 C 826.34 786.517 829.216 777.577 842.895 753.497 C 827.383 764.662 818.727 776.016 808.165 791.348 C 802.757 798.939 799.652 806.852 793.422 814.888 C 796.228 790.42 800.057 780.381 811.404 759.083 C 787.109 781.513 779.311 794.864 762.101 822.178 C 765.645 799.746 767.854 792.66 777.61 772.428 C 757.896 789.126 746.268 806.083 733.104 827.599 C 735.2 811.317 737.775 802.785 744.755 788.094 C 723.289 803.645 710.093 815.075 690.879 832.947 C 721.2 768.708 775.56 728.242 846.61 720.38 z"/>
    <path transform="translate(0,0)" fill="rgb(27,80,92)" d="M 1164.29 719.427 C 1237.31 714.024 1314.75 765.431 1342.36 832.488 C 1324.62 815.307 1309.41 802.975 1289.74 788.396 C 1295.77 803.665 1297.91 811.253 1300.96 827.067 C 1286.27 803.276 1276.74 791.019 1256.23 772.412 C 1265.47 792.016 1268 800.374 1271.34 821.73 C 1256.61 797.646 1244.87 778.323 1223.07 759.576 C 1229.56 772.854 1240.74 797.85 1239.82 812.464 L 1238.35 812.484 C 1224.09 786.487 1214.77 772.247 1191.07 754.182 C 1203.84 774.299 1207.57 790.042 1210.44 813.148 C 1197.15 788.147 1187.57 772.727 1164.68 755.502 C 1176.26 776.133 1178.89 787.848 1181.41 811.188 C 1166.7 784.563 1159.28 771.848 1133.87 754.463 C 1147.45 771.136 1151.64 788.783 1155.24 809.22 C 1143.86 798.301 1129.22 786.662 1117.19 775.959 C 1104.78 764.878 1093.06 753.054 1082.08 740.553 C 1107.62 727.867 1135.93 721.248 1164.29 719.427 z"/>
<!--    <path transform="translate(0,0)" fill="rgb(27,80,92)" d="M 1103.76 1274.15 L 1125.53 1274.14 C 1125.63 1286.71 1126.23 1439.62 1124.72 1442.01 L 1103.82 1442 L 1103.76 1366.27 C 1071.24 1365.79 1037.72 1366.2 1005.12 1366.19 L 1005.19 1441.92 L 982.96 1441.91 L 982.99 1274.39 L 1005.03 1274.31 L 1005.17 1346.72 C 1037.87 1347.12 1070.96 1346.84 1103.7 1346.81 L 1103.76 1274.15 z"/>-->
<!--    <path transform="translate(0,0)" fill="rgb(27,80,92)" d="M 1510.94 1274.05 L 1629.28 1274.02 L 1629.3 1293.72 C 1597.32 1293.82 1565.34 1293.73 1533.36 1293.45 C 1533.29 1311.15 1533.36 1328.85 1533.57 1346.55 C 1561.46 1347.05 1590.64 1346.63 1618.64 1346.65 L 1618.66 1365.67 L 1537.75 1365.81 C 1536.33 1365.79 1535.79 1366.09 1534.37 1366.46 C 1532.13 1371.41 1533.41 1414.61 1533.5 1422.78 L 1633.26 1422.95 C 1633.51 1429.18 1633.54 1435.74 1633.67 1442.01 L 1510.96 1441.97 L 1510.94 1274.05 z"/>-->
    <path transform="translate(0,0)" fill="rgb(27,80,92)" d="M 1163.72 645.441 C 1210.12 642.784 1255.71 662.566 1290.34 692.595 C 1265.09 683.313 1238.96 674.797 1212.19 671.408 C 1224.7 678.828 1235.9 688.255 1245.34 699.313 C 1222.47 687.403 1204.07 680.782 1179.14 674.685 C 1194.29 685.144 1201.63 690.522 1212.79 704.945 C 1196.62 695.856 1175.96 687.141 1158.15 682.234 C 1152.88 681.045 1146.54 680.016 1141.15 678.998 C 1160.27 687.846 1169.09 695.028 1183.33 710.138 C 1150.48 698.765 1130.88 692.956 1096.42 697.923 C 1111.19 700.225 1125.35 703.687 1138.34 711.295 C 1112.44 715.287 1097.18 720.341 1073.53 730.905 C 1062.83 718.376 1054.48 707.068 1045.28 693.491 C 1078.46 664.991 1120.06 648.118 1163.72 645.441 z"/>
    <path transform="translate(0,0)" fill="rgb(27,80,92)" d="M 852.926 646.424 C 901.826 642.592 951.481 662.883 988.824 693.658 C 981.251 705.682 969.53 720.68 960.201 731.325 C 934.755 720.006 921.691 715.384 894.239 711.25 C 911.812 703.867 918.945 703.144 936.365 697.943 C 902.347 693.686 882.987 699.362 851.014 710.363 C 861.273 698.077 871.639 690.599 885.589 683.187 C 887.87 681.98 887.308 682.333 889.241 680.683 C 876.758 678.272 834.421 698.87 821.787 705.489 C 832.074 691.316 841.495 684.188 856.128 674.827 C 827.88 681.759 816.266 688.513 790.495 698.623 C 802.182 685.584 809.725 681.083 823.231 670.792 C 791.587 677.275 776.067 682.272 745.588 692.497 C 773.66 664.295 813.735 649.445 852.926 646.424 z"/>
    <path transform="translate(0,0)" fill="rgb(27,80,92)" d="M 952.359 390.696 C 955.892 394.064 968.595 415.178 971.887 420.496 L 1016.73 493.617 C 1038.74 461.032 1058.92 423.431 1080.7 390.344 L 1093.67 426.9 L 1080.26 448.563 C 1068.61 468.036 1056.03 487.673 1044.1 507.038 C 1035.4 521.153 1025.87 537.366 1016.58 550.729 C 991.239 512.057 965.143 467 940.516 427.186 C 944.3 414.97 948.248 402.806 952.359 390.696 z"/>
    <path transform="translate(0,0)" fill="rgb(27,80,92)" d="M 897.661 514.462 C 900.393 517.395 923.95 555.659 927.726 561.694 L 974.661 637.072 C 981.399 647.949 996.351 671.029 1000.63 682.073 C 996.615 679.418 992.319 676.295 988.339 673.513 C 950.529 647.667 923.749 637.885 878.879 631.029 C 883.533 591.932 889.799 553.043 897.661 514.462 z"/>
    <path transform="translate(0,0)" fill="rgb(27,80,92)" d="M 1134.55 514.777 C 1140.79 522.612 1152.62 616.635 1153.9 630.762 C 1109.25 636.74 1084.15 647.836 1047.04 672.205 C 1041.57 676.127 1038.21 678.089 1032.32 681.366 C 1042.24 662.637 1056.75 640.84 1068.05 622.479 L 1134.55 514.777 z"/>
<!--    <path transform="translate(0,0)" fill="rgb(27,80,92)" d="M 1347.77 1273.96 L 1483 1273.94 L 1483.06 1293.76 L 1426.31 1293.21 L 1426.33 1383.5 L 1426.29 1441.98 L 1403.67 1441.97 L 1403.99 1293.7 L 1347.76 1293.54 L 1347.77 1273.96 z"/>-->
<!--    <path transform="translate(0,0)" fill="rgb(27,80,92)" d="M 1668.74 1274.14 L 1690.75 1273.97 L 1690.84 1422.8 L 1782.4 1422.82 L 1782.29 1442.02 L 1668.85 1441.95 L 1668.74 1274.14 z"/>-->
    <path transform="translate(0,0)" fill="rgb(27,80,92)" d="M 961.631 363.224 L 994.381 363.108 C 1001.73 374.494 1009.4 387.974 1016.45 399.716 C 1024.19 387.508 1030.95 375.82 1038.13 363.255 L 1071.56 363.249 C 1065.6 374.519 1057.2 387.883 1050.6 399.028 C 1039.72 417.967 1028.41 436.651 1016.67 455.066 C 1006.1 439.706 994.704 419.436 984.933 403.313 C 978.443 392.604 966.745 373.866 961.631 363.224 z"/>
    <path transform="translate(0,0)" fill="rgb(27,80,92)" d="M 1016.16 262.523 C 1020.52 266.65 1050.12 335.555 1055.19 347.071 L 1029.9 347.121 L 1016.92 368.579 L 1015.64 368.395 C 1011.46 363.072 1006.39 353.319 1002.93 347.128 L 977.813 347.07 C 991.165 319.149 1003.95 290.961 1016.16 262.523 z"/>
<!--    <path transform="translate(0,0)" fill="rgb(45,40,35)" d="M 537.538 1503.7 C 554.29 1502.02 569.214 1514.28 570.816 1531.04 C 572.419 1547.8 560.088 1562.67 543.322 1564.19 C 526.664 1565.71 511.914 1553.47 510.322 1536.82 C 508.73 1520.17 520.895 1505.37 537.538 1503.7 z"/>-->
<!--    <path transform="translate(0,0)" fill="rgb(45,40,35)" d="M 1233.89 1503.71 C 1250.45 1501.72 1265.51 1513.46 1267.64 1530.01 C 1269.76 1546.56 1258.14 1561.72 1241.62 1563.98 C 1224.89 1566.27 1209.51 1554.48 1207.36 1537.74 C 1205.21 1520.99 1217.13 1505.71 1233.89 1503.71 z"/>-->
<!--    <path transform="translate(0,0)" fill="rgb(45,40,35)" d="M 1438.51 1505.16 C 1446.51 1504.44 1452.84 1504.34 1460.25 1507.85 C 1467.27 1511.1 1472.67 1517.06 1475.23 1524.36 C 1477.79 1531.61 1477.34 1539.58 1473.99 1546.49 C 1469.39 1555.89 1462.75 1559.22 1453.69 1562.57 C 1445.43 1563.58 1439.15 1563.88 1431.43 1560.13 C 1424.18 1556.63 1418.71 1550.3 1416.3 1542.62 C 1413.9 1535.04 1414.65 1526.81 1418.38 1519.79 C 1423.11 1511.07 1429.7 1507.95 1438.51 1505.16 z"/>-->
<!--    <path transform="translate(0,0)" fill="rgb(178,145,68)" d="M 870.208 1346.83 C 895.943 1346.25 923.515 1346.75 949.393 1346.76 L 949.582 1378.04 C 925.842 1379.18 894.243 1378.28 870.108 1378.25 L 870.208 1346.83 z"/>-->
<!--    <path transform="translate(0,0)" fill="rgb(45,40,35)" d="M 1491.82 1504.97 C 1509.5 1504.82 1540.84 1500.42 1538.54 1528.38 C 1537.99 1535.12 1531.72 1540.01 1526.54 1543.48 C 1530.25 1549.38 1536.79 1555.78 1537.9 1561.48 C 1536.17 1563.49 1535.39 1562.81 1531.72 1563.08 C 1527.89 1559.76 1521.01 1549.17 1517.79 1544.48 L 1500.12 1544.47 C 1500.21 1548.74 1501.14 1559.63 1498.83 1562.35 C 1495.68 1562.66 1495.36 1562.94 1492.38 1561.75 C 1491.25 1555.95 1491.8 1513.74 1491.82 1504.97 z"/>-->
<!--    <path transform="translate(0,0)" fill="rgb(45,40,35)" d="M 1078.35 1504.17 C 1087.14 1504.06 1097.86 1507.82 1095.36 1518.78 C 1093.83 1525.47 1089.18 1527.99 1083.95 1531.64 C 1086.87 1534.85 1093.6 1542.79 1096.94 1544.67 C 1099.95 1542.14 1098.98 1539.5 1101.16 1534.54 C 1104.5 1534.38 1102.92 1534.09 1106.03 1535.6 C 1107.64 1541.11 1104.59 1544.83 1101.78 1550.12 C 1104.63 1552.74 1106.45 1554.06 1108.38 1557.34 C 1107.99 1561.15 1108.04 1560 1104.82 1563.48 C 1102.16 1562.17 1099.7 1558.96 1097.62 1556.63 C 1087.06 1563.92 1070.28 1567.78 1060.94 1556.55 C 1058.49 1553.63 1057.4 1549.82 1057.93 1546.05 C 1059.1 1537.98 1064.79 1534.31 1070.78 1530.13 C 1061.42 1518.06 1062.34 1508.07 1078.35 1504.17 z"/>-->
<!--    <path transform="translate(0,0)" fill="rgb(45,40,35)" d="M 640.282 1505.07 C 654.381 1504.91 682.89 1501.91 687.126 1518.8 C 690.566 1532.53 681.535 1541.79 669.203 1544.94 L 648.988 1545.13 C 649.02 1548.97 649.667 1559.85 647.858 1562.29 C 643.741 1562.21 643.808 1562.85 640.783 1561.03 C 639.534 1555.1 640.245 1513.82 640.282 1505.07 z"/>-->
<!--    <path transform="translate(0,0)" fill="rgb(45,40,35)" d="M 1283.35 1504.71 C 1284.56 1504.68 1287.76 1504.53 1288.63 1505.08 C 1296.16 1509.83 1309.72 1537.91 1313.74 1545.39 C 1317.79 1538.47 1335.21 1503.63 1342.39 1505.29 C 1347.32 1512.57 1344.22 1548.53 1344.66 1558.94 C 1344.73 1560.72 1343.39 1561.98 1342.29 1563.17 C 1333.69 1562.49 1336.76 1540.07 1336.88 1532.75 L 1336.79 1520.5 C 1329.38 1532.59 1322.18 1546.97 1314.1 1558.42 C 1306.96 1548.87 1297.95 1532.1 1291.3 1521.13 C 1291.81 1527.24 1292.35 1555.42 1291.65 1561.43 L 1289.62 1562.85 C 1286.44 1563.01 1286.41 1563.31 1283.8 1561.65 C 1282.49 1550.45 1283.32 1517.61 1283.35 1504.71 z"/>-->
<!--    <path transform="translate(0,0)" fill="rgb(45,40,35)" d="M 797.83 1504.79 C 799.579 1504.76 804.717 1504.58 805.306 1505.38 C 811.686 1514.01 828.412 1552.74 831.227 1560.75 L 830.376 1562.16 C 827.393 1562.57 827.096 1562.86 824.217 1561.83 C 820.994 1558.62 819.168 1553.07 817.307 1548.7 L 804.75 1548.79 L 786.644 1548.77 C 784.778 1553.19 782.424 1560.52 778.558 1562.7 C 774.88 1562.47 774.65 1563.14 772.593 1561.19 C 773.82 1556.74 779.591 1545.15 781.729 1540.5 L 797.83 1504.79 z"/>-->
<!--    <path transform="translate(0,0)" fill="rgb(45,40,35)" d="M 486.816 1529.64 C 486.856 1523.33 484.715 1509.85 489.232 1505.64 C 492.778 1504.99 491.192 1504.74 494.207 1505.81 C 495.768 1512.67 495.892 1556.11 494.648 1563.3 C 491.812 1563.09 491.324 1563.11 488.616 1562.36 C 484.733 1557.38 486.45 1544.11 486.579 1537.09 L 453.424 1536.99 C 453.461 1543.7 453.891 1554.32 452.995 1560.98 C 452.842 1562.11 451.539 1562.39 450.169 1563.11 C 446.396 1562.8 447.894 1563.53 445.317 1561.34 C 444.039 1545.9 444.915 1521.04 445.004 1504.91 C 448.039 1504.88 448.281 1504.79 451.362 1505.49 C 455.237 1510.43 453.377 1522.93 453.29 1529.54 L 486.816 1529.64 z"/>-->
<!--    <path transform="translate(0,0)" fill="rgb(45,40,35)" d="M 595.894 1505.24 C 601.562 1504.55 607.297 1504.63 612.946 1505.46 C 616.599 1505.98 621.277 1506.43 623.524 1509.44 L 623.171 1511.84 C 617.824 1517.13 588.51 1504.97 591.426 1521.73 C 599.657 1532.27 624.5 1530.4 626.85 1544.96 C 628.96 1558.04 614.444 1562.42 605.399 1563.74 C 599.23 1563.32 584.783 1561.63 581.463 1556.13 L 582.372 1553.4 C 589.291 1548.41 597.981 1557.43 606.268 1556.27 C 612.682 1555.38 618.742 1553.07 617.653 1545.33 C 610.18 1534.37 575.868 1539.37 583.434 1516 C 585.363 1510.04 590.581 1507.66 595.894 1505.24 z"/>-->
<!--    <path transform="translate(0,0)" fill="rgb(45,40,35)" d="M 1173.89 1504.27 C 1180.34 1504.33 1196.59 1507.26 1197.89 1514.97 C 1190.8 1522.7 1187.19 1509.19 1172.15 1511.96 C 1166.04 1513.07 1160.66 1516.69 1157.33 1521.93 C 1153.75 1527.51 1152.71 1534.34 1154.44 1540.73 C 1158.67 1555.69 1173.86 1557.46 1186.67 1553.43 C 1189.23 1551.51 1189.2 1551.49 1192.16 1550.32 C 1195.72 1551.1 1194.48 1550.16 1196.37 1552.68 L 1195.91 1555.37 C 1188.13 1565.69 1167.98 1566.26 1158.47 1559.13 C 1134.72 1541.32 1142.82 1508.81 1173.89 1504.27 z"/>-->
<!--    <path transform="translate(0,0)" fill="rgb(45,40,35)" d="M 1364.11 1505 C 1374.4 1505.18 1396.59 1503.75 1405.06 1506.06 C 1406.02 1508.65 1406.01 1507.37 1404.94 1510.03 C 1399.36 1513.86 1381.14 1512.25 1372.85 1512.2 L 1372.93 1532.63 L 1400.83 1532.32 L 1402.41 1533.14 C 1403.11 1535.62 1403.2 1535.46 1402.47 1537.9 C 1398.47 1541.14 1379.45 1539.74 1372.87 1539.63 C 1372.92 1543.76 1373.69 1559.22 1372.07 1561.79 C 1368.82 1562.01 1368.05 1562.25 1364.91 1561.14 C 1363.18 1555.36 1364.06 1513.59 1364.11 1505 z"/>-->
<!--    <path transform="translate(0,0)" fill="rgb(45,40,35)" d="M 997.282 1534.57 C 1003.14 1525.74 1008.9 1514.75 1015.54 1506.39 C 1017.06 1504.49 1019.63 1505.04 1022.13 1505.06 L 1022.86 1506.64 C 1021.43 1511.66 1015.92 1519.34 1012.86 1524.06 L 1001.43 1542.86 C 1001.58 1548.47 1003.16 1560.71 996.898 1563.42 C 991.587 1559.45 992.914 1548.85 993.058 1543.02 C 985.818 1530.18 977.559 1517.42 969.692 1504.91 C 972.799 1504.81 973.952 1504.89 976.957 1505.17 C 984.622 1509.9 992.341 1525.99 997.282 1534.57 z"/>-->
<!--    <path transform="translate(0,0)" fill="rgb(45,40,35)" d="M 1545.22 1505.23 C 1555.1 1505.2 1584.67 1503.93 1592.82 1505.83 C 1594.26 1509.07 1593.95 1507.4 1593.54 1511.09 C 1590.95 1513.53 1578.72 1512.37 1573.94 1512.3 L 1573.95 1543.25 C 1574.08 1549.34 1574.41 1555.29 1573.58 1561.32 L 1572.2 1562.18 C 1568.4 1561.89 1568.71 1562.49 1566.04 1560.63 C 1564.4 1553.74 1565.25 1521.72 1565.33 1512.33 C 1559.18 1512.32 1552.72 1513.69 1547.21 1511.76 C 1544.69 1509.22 1545.51 1509.92 1545.22 1505.23 z"/>-->
<!--    <path transform="translate(0,0)" fill="rgb(45,40,35)" d="M 722.314 1505.05 C 731.746 1505.08 764.661 1503.72 770.659 1506.98 C 771.099 1510.36 771.401 1508.86 770.1 1511.69 C 765.089 1512.74 756.43 1512.41 751.017 1512.39 L 751.099 1544.5 C 751.222 1550.07 751.65 1556.29 750.494 1561.68 C 748.439 1563.56 749.651 1562.96 746.593 1563.2 L 744.433 1561.18 C 741.113 1552.83 742.47 1523.21 742.564 1512.46 C 736.813 1512.37 727.758 1514.53 723.701 1511.35 C 722.351 1510.29 722.551 1507.27 722.314 1505.05 z"/>-->
<!--    <path transform="translate(0,0)" fill="rgb(45,40,35)" d="M 917.494 1505.04 C 924.674 1505.12 961.958 1503.79 965.765 1506.35 C 966.213 1509.87 966.567 1508.33 965.182 1511.19 C 960.543 1513.34 951.501 1512.51 945.941 1512.43 L 945.935 1544.5 C 946.039 1548.62 946.958 1559.46 944.78 1562.26 C 940.726 1562.21 940.185 1562.98 937.899 1560.93 C 936.667 1554.36 937.505 1522.14 937.346 1512.27 C 931.483 1512.35 923.886 1513.27 918.89 1511.45 C 916.762 1508.73 917.463 1509.42 917.494 1505.04 z"/>-->
<!--    <path transform="translate(0,0)" fill="rgb(45,40,35)" d="M 843.755 1504.97 C 847.326 1504.85 848.178 1504.66 851.687 1505.72 C 852.888 1511.51 852.387 1546.78 852.389 1555.1 C 862.288 1555.16 873.036 1553.36 881.968 1555.94 C 884.459 1558.7 883.647 1557.99 883.826 1562.8 C 871.154 1563.23 856.47 1562.9 843.631 1562.95 C 844.236 1543.99 843.846 1524.01 843.755 1504.97 z"/>-->
<!--    <path transform="translate(0,0)" fill="rgb(45,40,35)" d="M 702.674 1504.78 C 706.173 1504.86 708.176 1504.43 710.602 1506.19 C 711.389 1514.24 711.485 1554.85 710.521 1562.57 C 706.201 1562.35 705.603 1563.06 702.689 1560.99 C 701.323 1548.8 702.554 1518.56 702.674 1504.78 z"/>-->
<!--    <path transform="translate(0,0)" fill="rgb(45,40,35)" d="M 896.736 1505 C 899.144 1505.01 901.243 1505.23 903.627 1505.46 C 906.302 1508.22 905.116 1555.34 905.089 1562.7 C 901.42 1562.82 901.108 1562.87 897.554 1562.21 C 895.719 1556.49 896.673 1513.72 896.736 1505 z"/>-->
  </g>
</svg>
