<svg version="1.1" xmlns="http://www.w3.org/2000/svg" style="display: block;" viewBox="520 240 990 950" width="100%" height="100%">
  <defs>
    <!-- Mask to cut out the inner "holes" so the background shows through -->
    <mask id="cutout-holes">
      <rect x="0" y="0" width="2048" height="1924" fill="white" />
      <!-- Inner paths converted to black to create transparent cutouts -->
      <path fill="black" d="M 1016.61 758.534 C 1019.48 760.639 1031.68 774.671 1034.86 778.118 C 1044.7 788.933 1055.06 799.259 1065.91 809.06 C 1127.61 863.937 1175.54 895.753 1248.38 933.169 C 1247.63 998.015 1248.17 1063.76 1248.2 1128.68 L 1154.78 1128.93 C 1154.85 1092.07 1157.73 1039.75 1152.02 1004.87 C 1134.04 895.039 1049.25 904.433 1017.12 829.188 C 1014.97 830.479 1008.43 845.657 1006.03 849.292 C 985.123 880.911 949.767 896.038 923.402 922.282 C 882.045 963.451 879.925 1009.32 879.919 1063.58 L 879.975 1128.81 L 786.073 1128.89 L 785.953 934.468 C 869.85 890.168 955.931 832.609 1016.61 758.534 z"/>
    </mask>
  </defs>

  <g mask="url(#cutout-holes)">
    <!-- Colored Shapes -->
    <path fill="rgb(27,80,92)" d="M 1016.31 681.47 C 1019.73 684.318 1036.97 714.057 1042.1 720.76 C 1065.28 750.901 1091.26 778.778 1119.69 804.019 C 1198.96 873.681 1298.9 926.544 1395.43 968.335 C 1418.64 978.383 1443.16 986.699 1467.33 994.06 C 1473.48 995.932 1480.06 997.463 1485.71 1000.5 C 1421.97 993.661 1359.54 977.776 1300.29 953.325 L 1300.48 1171.2 C 1231.51 1172.22 1160.2 1171.28 1091.01 1171.34 L 1091.29 1074.24 C 1091.43 1018.82 1095.44 982.359 1044.98 947.497 C 1034.59 940.318 1024.4 927.056 1017.6 916.464 C 1015.35 916.627 1010.63 924.431 1008.95 927.003 C 998.549 942.588 982.79 952.968 969.259 965.936 C 937.278 996.589 942.998 1039.19 943.134 1080.13 L 943.611 1171.27 C 874.244 1172.19 803.075 1171.38 733.518 1171.53 C 732.711 1099.45 733.32 1026.23 733.301 954.073 C 677.029 977.198 609.287 995.908 548.568 1001.08 C 559.889 997.789 571.155 994.316 582.364 990.663 C 628.669 975.434 679.235 952.239 722.595 929.933 C 815.675 882.05 907.563 823.437 975.051 742.149 C 990.787 723.194 1005.16 703.514 1016.31 681.47 z"/>
    <path fill="rgb(27,80,92)" d="M 1016.83 593.595 C 1031.61 571.315 1046.24 546.276 1060.5 523.393 C 1075.63 499.118 1091.82 473.909 1106.07 449.329 C 1110.38 462.662 1114.59 476.025 1118.72 489.415 L 1105.42 512.576 L 1017.44 655.451 C 1012.89 649.047 1008.23 641.498 1004.12 634.747 C 974.836 586.629 942.815 539.265 915.191 490.221 C 918.146 478.188 923.442 462.349 927.484 450.575 C 932.621 454.745 1007.23 578.536 1016.83 593.595 z"/>
    <path fill="rgb(27,80,92)" d="M 846.61 720.38 C 878.014 715.201 923.27 727.8 952.113 740.323 C 930.422 765.188 902.883 788.185 877.978 809.914 C 882.378 785.582 885.52 772.287 900.96 753.003 C 875.304 772.928 867.985 782.763 852.307 810.731 C 853.617 788.196 858.776 772.256 870.954 753.454 C 847.073 771.984 837.454 788.29 822.737 813.951 C 826.34 786.517 829.216 777.577 842.895 753.497 C 827.383 764.662 818.727 776.016 808.165 791.348 C 802.757 798.939 799.652 806.852 793.422 814.888 C 796.228 790.42 800.057 780.381 811.404 759.083 C 787.109 781.513 779.311 794.864 762.101 822.178 C 765.645 799.746 767.854 792.66 777.61 772.428 C 757.896 789.126 746.268 806.083 733.104 827.599 C 735.2 811.317 737.775 802.785 744.755 788.094 C 723.289 803.645 710.093 815.075 690.879 832.947 C 721.2 768.708 775.56 728.242 846.61 720.38 z"/>
    <path fill="rgb(27,80,92)" d="M 1164.29 719.427 C 1237.31 714.024 1314.75 765.431 1342.36 832.488 C 1324.62 815.307 1309.41 802.975 1289.74 788.396 C 1295.77 803.665 1297.91 811.253 1300.96 827.067 C 1286.27 803.276 1276.74 791.019 1256.23 772.412 C 1265.47 792.016 1268 800.374 1271.34 821.73 C 1256.61 797.646 1244.87 778.323 1223.07 759.576 C 1229.56 772.854 1240.74 797.85 1239.82 812.464 L 1238.35 812.484 C 1224.09 786.487 1214.77 772.247 1191.07 754.182 C 1203.84 774.299 1207.57 790.042 1210.44 813.148 C 1197.15 788.147 1187.57 772.727 1164.68 755.502 C 1176.26 776.133 1178.89 787.848 1181.41 811.188 C 1166.7 784.563 1159.28 771.848 1133.87 754.463 C 1147.45 771.136 1151.64 788.783 1155.24 809.22 C 1143.86 798.301 1129.22 786.662 1117.19 775.959 C 1104.78 764.878 1093.06 753.054 1082.08 740.553 C 1107.62 727.867 1135.93 721.248 1164.29 719.427 z"/>
    <path fill="rgb(27,80,92)" d="M 1163.72 645.441 C 1210.12 642.784 1255.71 662.566 1290.34 692.595 C 1265.09 683.313 1238.96 674.797 1212.19 671.408 C 1224.7 678.828 1235.9 688.255 1245.34 699.313 C 1222.47 687.403 1204.07 680.782 1179.14 674.685 C 1194.29 685.144 1201.63 690.522 1212.79 704.945 C 1196.62 695.856 1175.96 687.141 1158.15 682.234 C 1152.88 681.045 1146.54 680.016 1141.15 678.998 C 1160.27 687.846 1169.09 695.028 1183.33 710.138 C 1150.48 698.765 1130.88 692.956 1096.42 697.923 C 1111.19 700.225 1125.35 703.687 1138.34 711.295 C 1112.44 715.287 1097.18 720.341 1073.53 730.905 C 1062.83 718.376 1054.48 707.068 1045.28 693.491 C 1078.46 664.991 1120.06 648.118 1163.72 645.441 z"/>
    <path fill="rgb(27,80,92)" d="M 852.926 646.424 C 901.826 642.592 951.481 662.883 988.824 693.658 C 981.251 705.682 969.53 720.68 960.201 731.325 C 934.755 720.006 921.691 715.384 894.239 711.25 C 911.812 703.867 918.945 703.144 936.365 697.943 C 902.347 693.686 882.987 699.362 851.014 710.363 C 861.273 698.077 871.639 690.599 885.589 683.187 C 887.87 681.98 887.308 682.333 889.241 680.683 C 876.758 678.272 834.421 698.87 821.787 705.489 C 832.074 691.316 841.495 684.188 856.128 674.827 C 827.88 681.759 816.266 688.513 790.495 698.623 C 802.182 685.584 809.725 681.083 823.231 670.792 C 791.587 677.275 776.067 682.272 745.588 692.497 C 773.66 664.295 813.735 649.445 852.926 646.424 z"/>
    <path fill="rgb(27,80,92)" d="M 952.359 390.696 C 955.892 394.064 968.595 415.178 971.887 420.496 L 1016.73 493.617 C 1038.74 461.032 1058.92 423.431 1080.7 390.344 L 1093.67 426.9 L 1080.26 448.563 C 1068.61 468.036 1056.03 487.673 1044.1 507.038 C 1035.4 521.153 1025.87 537.366 1016.58 550.729 C 991.239 512.057 965.143 467 940.516 427.186 C 944.3 414.97 948.248 402.806 952.359 390.696 z"/>
    <path fill="rgb(27,80,92)" d="M 897.661 514.462 C 900.393 517.395 923.95 555.659 927.726 561.694 L 974.661 637.072 C 981.399 647.949 996.351 671.029 1000.63 682.073 C 996.615 679.418 992.319 676.295 988.339 673.513 C 950.529 647.667 923.749 637.885 878.879 631.029 C 883.533 591.932 889.799 553.043 897.661 514.462 z"/>
    <path fill="rgb(27,80,92)" d="M 1134.55 514.777 C 1140.79 522.612 1152.62 616.635 1153.9 630.762 C 1109.25 636.74 1084.15 647.836 1047.04 672.205 C 1041.57 676.127 1038.21 678.089 1032.32 681.366 C 1042.24 662.637 1056.75 640.84 1068.05 622.479 L 1134.55 514.777 z"/>
    <path fill="rgb(27,80,92)" d="M 961.631 363.224 L 994.381 363.108 C 1001.73 374.494 1009.4 387.974 1016.45 399.716 C 1024.19 387.508 1030.95 375.82 1038.13 363.255 L 1071.56 363.249 C 1065.6 374.519 1057.2 387.883 1050.6 399.028 C 1039.72 417.967 1028.41 436.651 1016.67 455.066 C 1006.1 439.706 994.704 419.436 984.933 403.313 C 978.443 392.604 966.745 373.866 961.631 363.224 z"/>
    <path fill="rgb(27,80,92)" d="M 1016.16 262.523 C 1020.52 266.65 1050.12 335.555 1055.19 347.071 L 1029.9 347.121 L 1016.92 368.579 L 1015.64 368.395 C 1011.46 363.072 1006.39 353.319 1002.93 347.128 L 977.813 347.07 C 991.165 319.149 1003.95 290.961 1016.16 262.523 z"/>
  </g>
</svg>
